<svg xmlns="http://www.w3.org/2000/svg" xmlns:xlink="http://www.w3.org/1999/xlink" viewBox="0,0,256,256" width="64px" height="64px" fill-rule="nonzero"><g fill="#f47c32" fill-rule="nonzero" stroke="none" stroke-width="1" stroke-linecap="butt" stroke-linejoin="miter" stroke-miterlimit="10" stroke-dasharray="" stroke-dashoffset="0" font-family="none" font-weight="none" font-size="none" text-anchor="none" style="mix-blend-mode: normal"><g transform="scale(4,4)"><path d="M31.88086,3c-4.21938,0.01364 -8.50134,0.95286 -12.55078,2.91992c-6.914,3.359 -12.20966,9.3278 -14.72266,16.5918c-5.244,15.126 2.76753,31.63786 17.89453,36.88086c15.127,5.243 31.63881,-2.76853 36.88281,-17.89453c2.544,-7.27 2.06869,-15.25778 -1.32031,-22.17578c-5.02766,-10.34784 -15.40072,-16.35713 -26.18359,-16.32227zM31.5332,4.98633c3.08043,-0.05333 6.22252,0.42447 9.30273,1.49219c6.761,2.344 12.31545,7.27684 15.43945,13.71484c3.125,6.438 3.56175,13.85519 1.21875,20.61719c-4.881,14.08 -20.25103,21.5382 -34.33203,16.6582c-14.081,-4.88 -21.5382,-20.25103 -16.6582,-34.33203c3.8125,-11.00078 14.02775,-17.95993 25.0293,-18.15039zM31.63867,8.31836c-0.835,-0.012 -1.66995,0.02161 -2.50195,0.09961c-0.552,0.018 -0.98384,0.48025 -0.96484,1.03125c0.018,0.552 0.48025,0.98384 1.03125,0.96484c0.041,-0.001 0.084,-0.00472 0.125,-0.01172c0.752,-0.078 1.50672,-0.11628 2.26172,-0.11328c0.547,-0.076 0.92756,-0.58095 0.85156,-1.12695c-0.059,-0.424 -0.38173,-0.76375 -0.80273,-0.84375zM25.05273,9.24219c-0.12908,-0.01417 -0.26423,-0.00239 -0.39648,0.03711c-7.037,2.141 -12.63059,7.50817 -15.05859,14.45117c-0.196,0.516 0.06408,1.09306 0.58008,1.28906c0.516,0.196 1.09306,-0.06213 1.28906,-0.57812c0.007,-0.017 0.01258,-0.03473 0.01758,-0.05273l-0.03516,0.03516c2.215,-6.358 7.33825,-11.27647 13.78125,-13.23047c0.529,-0.158 0.82792,-0.71514 0.66992,-1.24414c-0.1185,-0.39675 -0.46042,-0.66452 -0.84766,-0.70703zM44.9375,14.75c-2.382,0 -4.31055,1.9305 -4.31055,4.3125c0,2.382 1.92955,4.31445 4.31055,4.31445c0.614,0 1.19561,-0.13323 1.72461,-0.36523l-3.16406,-3.26953c-0.066,-0.068 -0.10166,-0.16086 -0.09766,-0.25586c0.003,-0.095 0.04619,-0.18505 0.11719,-0.24805l4.01758,-3.59766c-0.724,-0.551 -1.61766,-0.89062 -2.59766,-0.89062zM48.0625,16.10547l-3.80859,3.41211l3.04492,3.14648c1.173,-0.771 1.94922,-2.09256 1.94922,-3.60156c0,-1.148 -0.45455,-2.18403 -1.18555,-2.95703zM47.98242,18.15234c0.13481,-0.00811 0.26753,0.06241 0.33203,0.19141c0.018,0.037 0.44505,0.9185 -0.12695,2.0625c-0.061,0.123 -0.1845,0.19336 -0.3125,0.19336c-0.052,0 -0.10625,-0.01211 -0.15625,-0.03711c-0.173,-0.086 -0.24325,-0.29475 -0.15625,-0.46875c0.409,-0.817 0.136,-1.41641 0.125,-1.44141c-0.082,-0.173 -0.00989,-0.38084 0.16211,-0.46484c0.043,-0.02075 0.08787,-0.03245 0.13281,-0.03516zM39.4082,21.6582c-0.643,0.02775 -1.3727,0.1838 -2.1582,0.4668c-3.125,1.125 -6.875,5.25 -6.875,5.25l-3.00781,3.48828l2.46875,2.42578l11.20898,-11.32617c-0.4375,-0.231 -0.99372,-0.33244 -1.63672,-0.30469zM41.60156,22.39648l-11.26758,11.38477l1.45508,1.43164l8.46094,-8.58203c0.025,-0.024 1.84977,-1.82483 1.75977,-3.42383c-0.083,-0.317 -0.2182,-0.59155 -0.4082,-0.81055zM41.77148,25.87695c-0.486,0.713 -0.9863,1.209 -1.0293,1.25l-8.45508,8.57422l1.12305,1.10547c0.114,-0.104 0.22389,-0.20064 0.33789,-0.30664c6.093,-5.65 7.37544,-8.06005 8.02344,-10.62305zM26.9082,31.39453l-2.7832,3.23047l5.10352,-0.94922zM29.7207,34.1582l-1.75781,1.82031l3.12109,-0.48047zM31.70508,36.11133l-4.54492,0.69922l-8.33203,8.62305l3.49609,3.4375l0.17578,0.00391l-0.875,-3.625c0,0 4.82058,-2.18961 11.26758,-7.97461zM51.74219,37.12109c-0.3832,0.06998 -0.70492,0.36138 -0.79492,0.76563c-0.113,0.507 0.17978,1.01687 0.67578,1.17188l1.92969,0.51563c0.539,0.12 1.07336,-0.21881 1.19336,-0.75781c0.113,-0.507 -0.18173,-1.01687 -0.67773,-1.17187l-1.92773,-0.51562c-0.13475,-0.03 -0.2707,-0.03114 -0.39844,-0.00781zM50.04297,41.82813c-0.38813,-0.03413 -0.7772,0.16209 -0.9707,0.52734c-0.246,0.464 -0.09053,1.03941 0.35547,1.31641l1.73047,0.99609c0.482,0.275 1.09609,0.107 1.37109,-0.375c0.275,-0.482 0.107,-1.09609 -0.375,-1.37109l-1.73047,-0.98047c-0.122,-0.06475 -0.25148,-0.10191 -0.38086,-0.11328zM46.83203,45.83203c-0.25563,0 -0.50958,0.09797 -0.70508,0.29297c-0.39,0.39 -0.39,1.02211 0,1.41211l1.41211,1.41406c0.39,0.39 1.02211,0.39 1.41211,0c0.39,-0.39 0.39,-1.02406 0,-1.41406l-1.41211,-1.41211c-0.195,-0.195 -0.45141,-0.29297 -0.70703,-0.29297zM18.3418,45.9375l-2.7168,2.8125l5.68359,0.10352zM42.66992,48.9375c-0.12847,0.01628 -0.25405,0.05795 -0.37305,0.12695c-0.475,0.278 -0.63733,0.88923 -0.36133,1.36523l0.99023,1.72266c0.259,0.488 0.86261,0.67306 1.34961,0.41406c0.488,-0.259 0.67306,-0.86261 0.41406,-1.34961c-0.011,-0.02 -0.0212,-0.04155 -0.0332,-0.06055l-0.99609,-1.73047c-0.2085,-0.357 -0.60483,-0.53713 -0.99023,-0.48828zM38.23633,50.88672c-0.12845,-0.0188 -0.26103,-0.01327 -0.39453,0.02148c-0.002,0.001 -0.00291,0 -0.00391,0c-0.533,0.142 -0.85198,0.69161 -0.70898,1.22461c0.001,0.002 0.00095,0.00286 0.00195,0.00586l0.51563,1.92969c0.165,0.527 0.72595,0.8193 1.25195,0.6543c0.496,-0.155 0.79073,-0.66292 0.67773,-1.16992l-0.51562,-1.92969c-0.10425,-0.4005 -0.43886,-0.67994 -0.82422,-0.73633z"></path></g></g></svg>